<svg width="242" height="156" viewBox="0 0 242 156" fill="none" xmlns="http://www.w3.org/2000/svg">
<path d="M150.421 66.7451H121.533L154.406 33.8725L121.533 0.999939H150.421L183.294 33.8725L150.421 66.7451Z" stroke="white" stroke-width="0.716849"/>
<path d="M92.6449 66.7454H63.7569L96.6295 33.8728L63.7569 1.00018H92.6449L125.518 33.8728L92.6449 66.7454Z" stroke="white" stroke-width="0.716849"/>
<path d="M29.8881 66.7454H1.00003L33.8727 33.8728L1.00003 1.00018H29.8881L62.7607 33.8728L29.8881 66.7454Z" stroke="white" stroke-width="0.716849"/>
<path d="M208.127 155.634H179.239L212.112 122.762L179.239 89.8891H208.127L241 122.762L208.127 155.634Z" stroke="white" stroke-width="0.716849"/>
<path d="M150.351 155.634H121.463L154.336 122.762L121.463 89.8891H150.351L183.224 122.762L150.351 155.634Z" stroke="white" stroke-width="0.716849"/>
</svg>
