<svg width="218" height="226" viewBox="0 0 218 226" fill="none" xmlns="http://www.w3.org/2000/svg">
<path d="M108.514 88.8619L108.676 89.9773L109.337 89.065L144.758 40.2396L124.697 97.1263L124.322 98.1892L125.332 97.689L179.386 70.9171L135.186 111.965L134.36 112.732L135.487 112.758L195.791 114.173L137.578 129.978L136.49 130.274L137.476 130.821L190.214 160.098L131.324 147.04L130.224 146.796L130.842 147.738L163.935 198.171L117.858 159.241L116.997 158.514L117.107 159.635L122.971 219.67L100.265 163.787L99.8403 162.743L99.416 163.787L76.7092 219.67L82.5736 159.635L82.6832 158.514L81.8222 159.241L35.7461 198.171L68.8382 147.738L69.4566 146.796L68.3562 147.04L9.4662 160.098L62.205 130.821L63.1905 130.274L62.1028 129.978L3.88988 114.173L64.1936 112.758L65.3205 112.732L64.4946 111.965L20.2947 70.9171L74.3485 97.689L75.3585 98.1892L74.9836 97.1263L54.9224 40.2396L90.3432 89.065L91.005 89.9773L91.1671 88.8619L99.8403 29.1683L108.514 88.8619Z" stroke="white" stroke-width="0.915966"/>
<path d="M189.605 0.336182L192.201 18.2004L202.801 3.58865L196.797 20.6129L212.974 12.601L199.746 24.8851L217.793 25.3085L200.372 30.0385L216.155 38.8001L198.531 34.8923L208.434 49.9851L194.645 38.3347L196.4 56.301L189.605 39.5771L182.81 56.301L184.565 38.3347L170.776 49.9851L180.679 34.8923L163.055 38.8001L178.838 30.0385L161.417 25.3085L179.464 24.8851L166.236 12.601L182.413 20.6129L176.409 3.58865L187.009 18.2004L189.605 0.336182Z" fill="url(#paint0_linear_325_52)"/>
<defs>
<linearGradient id="paint0_linear_325_52" x1="162.604" y1="57.1261" x2="200.897" y2="-8.33539" gradientUnits="userSpaceOnUse">
<stop stop-color="#F63E3E"/>
<stop offset="1" stop-color="#F8AB48"/>
</linearGradient>
</defs>
</svg>
