<svg width="1280" height="767" viewBox="0 0 1280 767" fill="none" xmlns="http://www.w3.org/2000/svg">
<path d="M3.38554e-05 509.5H1280M3.38554e-05 541.5H1280M3.38554e-05 573.5H1280M3.38554e-05 605.5H1280M3.38554e-05 637.5H1280M3.38554e-05 669.5H1280M3.38554e-05 701.5H1280M3.38554e-05 733.5H1280M3.38554e-05 765.5H1280M3.38554e-05 797.5H1280M3.38554e-05 829.5H1280M3.38554e-05 861.5H1280M3.38554e-05 893.5H1280M3.38554e-05 925.5H1280M3.38554e-05 957.5H1280M3.38554e-05 989.5H1280M3.38554e-05 29.5H1280M3.38554e-05 89.5H1280M3.38554e-05 149.5H1280M3.38554e-05 209.5H1280M3.38554e-05 269.5H1280M3.38554e-05 329.5H1280M3.38554e-05 389.5H1280M3.38554e-05 449.5H1280M3.38554e-05 59.5H1280M3.38554e-05 119.5H1280M3.38554e-05 179.5H1280M3.38554e-05 239.5H1280M3.38554e-05 299.5H1280M3.38554e-05 359.5H1280M3.38554e-05 419.5H1280M3.38554e-05 479.5H1280M86.5 0L86.5 775M416.5 0L416.5 775M746.5 0L746.5 775M1076.5 0V775M56.5 0L56.5 775M386.5 0L386.5 775M716.5 0L716.5 775M1046.5 0V775M26.5 0L26.5 775M356.5 0L356.5 775M686.5 0L686.5 775M1016.5 0L1016.5 775M-3.49997 0L-3.5 775M326.5 0L326.5 775M656.5 0L656.5 775M986.5 0L986.5 775M206.5 0L206.5 775M176.5 0L176.5 775M506.5 0L506.5 775M836.5 0L836.5 775M1166.5 0V775M146.5 0L146.5 775M476.5 0L476.5 775M806.5 0L806.5 775M1136.5 0V775M116.5 0L116.5 775M446.5 0L446.5 775M776.5 0L776.5 775M1106.5 0V775M296.5 0L296.5 775M626.5 0L626.5 775M956.5 0L956.5 775M1286.5 0V775M266.5 0L266.5 775M596.5 0L596.5 775M926.5 0L926.5 775M1256.5 0V775M236.5 0L236.5 775M566.5 0L566.5 775M896.5 0L896.5 775M1226.5 0V775M536.5 0L536.5 775M866.5 0L866.5 775M1196.5 0V775" stroke="url(#paint0_radial_270_1608)"/>
<defs>
<radialGradient id="paint0_radial_270_1608" cx="0" cy="0" r="1" gradientUnits="userSpaceOnUse" gradientTransform="translate(668.5 377) rotate(91.382) scale(414.621 540.536)">
<stop stop-color="#515151"/>
<stop offset="1" stop-color="#202020" stop-opacity="0.32"/>
</radialGradient>
</defs>
</svg>
